<svg id="Capa_1" data-name="Capa 1" xmlns="http://www.w3.org/2000/svg" viewBox="0 0 1080 1080"><defs><style>.cls-1{fill:#46dc8c;}</style></defs><title>Set&amp;amp;forget_2021_logotipos</title><path class="cls-1" d="M465.87,872H282.28A107.35,107.35,0,0,1,174.86,764.58v-.86A107.33,107.33,0,0,1,282.28,656.3H506.85V573.23H282.52A107.35,107.35,0,0,1,175.1,465.81v-2A107.38,107.38,0,0,1,282.52,356.41H506.85v-41A107.38,107.38,0,0,1,614.28,208H797.51a107.42,107.42,0,1,1,0,214.84H573.29v84H797.72A107.35,107.35,0,0,1,905.14,614.22v1.09A107.36,107.36,0,0,1,797.72,722.73H573.29v41.85A107.38,107.38,0,0,1,465.87,872ZM282.28,722.73a41,41,0,0,0-41,41v.86a41,41,0,0,0,41,41H465.87a41,41,0,0,0,41-41V722.73Zm291-66.43H797.72a41,41,0,0,0,41-41v-1.09a41,41,0,0,0-41-41H573.29ZM282.52,422.84a41,41,0,0,0-41,41v2a41,41,0,0,0,41,41H506.85v-84Zm290.77-66.43H797.51a41,41,0,0,0,0-82H614.28a41,41,0,0,0-41,41Z"/></svg>